<?xml version="1.0" encoding="UTF-8" standalone="no"?>
<svg
   version="1.1"
   viewBox="0 0 900 120"
   fill="none"
   stroke="none"
   stroke-linecap="square"
   stroke-miterlimit="10"
   id="svg15"
   sodipodi:docname="dark.svg"
   width="900"
   height="120"
   inkscape:version="1.2 (dc2aeda, 2022-05-15)"
   xmlns:inkscape="http://www.inkscape.org/namespaces/inkscape"
   xmlns:sodipodi="http://sodipodi.sourceforge.net/DTD/sodipodi-0.dtd"
   xmlns="http://www.w3.org/2000/svg"
   xmlns:svg="http://www.w3.org/2000/svg">
  <defs
     id="defs19" />
  <sodipodi:namedview
     id="namedview17"
     pagecolor="#ffffff"
     bordercolor="#000000"
     borderopacity="0.25"
     inkscape:showpageshadow="2"
     inkscape:pageopacity="0.0"
     inkscape:pagecheckerboard="0"
     inkscape:deskcolor="#d1d1d1"
     showgrid="false"
     inkscape:zoom="0.54542122"
     inkscape:cx="583.03562"
     inkscape:cy="211.76294"
     inkscape:window-width="1440"
     inkscape:window-height="809"
     inkscape:window-x="0"
     inkscape:window-y="25"
     inkscape:window-maximized="0"
     inkscape:current-layer="svg15" />
  <clipPath
     id="g2c340aed4ec_0_0.0">
    <path
       d="M 0,0 H 960 V 540 H 0 Z"
       clip-rule="nonzero"
       id="path2" />
  </clipPath>
  <g
     clip-path="url(#g2c340aed4ec_0_0.0)"
     id="g13"
     transform="translate(-27.501681,-202.01345)">
    <path
       fill="#000000"
       fill-opacity="0"
       d="M 0,0 H 960 V 540 H 0 Z"
       fill-rule="evenodd"
       id="path5" />
    <path
       fill="#000000"
       fill-opacity="0"
       d="m 0,250.8189 h 960 v 38.3622 H 0 Z"
       fill-rule="evenodd"
       id="path7" />
    <path
       fill="#000000"
       d="m 60.41992,284.4 v -0.95313 q 0.984375,-0.20312 1.453125,-0.4375 0.484375,-0.23437 0.71875,-0.65625 0.234375,-0.42187 0.234375,-1.125 0,-0.65625 -0.15625,-1.42187 -0.15625,-0.78125 -0.453125,-1.73438 l -0.71875,-2.51562 H 52.38867 l -0.65625,1.90625 q -0.515625,1.45312 -0.671875,2.20312 -0.15625,0.73438 -0.15625,1.32813 0,1.17187 0.59375,1.71875 0.609375,0.54687 1.828125,0.73437 V 284.4 h -8.328125 v -0.95313 q 1.09375,-0.1875 1.890625,-1.28125 0.8125,-1.09375 1.578125,-3.125 l 8.140625,-21.60937 h 3.09375 l 6.640625,21.76562 q 0.46875,1.53125 0.828125,2.32813 0.359375,0.79687 0.859375,1.25 0.515625,0.45312 1.390625,0.67187 V 284.4 Z m -7.5,-10.54688 h 8.171875 l -3.71875,-12.59375 z m 25.171875,8.75 h 5.125 q 0.84375,0 1.40625,-0.0937 0.5625,-0.10937 0.953125,-0.3125 0.40625,-0.20312 0.734375,-0.5625 0.328125,-0.35937 0.609375,-0.9375 0.296875,-0.59375 0.5625,-1.48437 0.265625,-0.89063 0.65625,-2.67188 h 1.96875 L 89.716795,284.4 h -17.5625 v -0.95313 q 1.21875,-0.3125 1.625,-0.6875 0.40625,-0.39062 0.53125,-1.09375 0.140625,-0.70312 0.140625,-2.15625 v -16.89062 q 0,-1.34375 -0.109375,-1.95313 -0.09375,-0.625 -0.328125,-0.96875 -0.21875,-0.34375 -0.59375,-0.54687 -0.359375,-0.20313 -1.265625,-0.45313 v -0.95312 h 8.234375 v 0.95312 q -0.859375,0.23438 -1.234375,0.42188 -0.359375,0.1875 -0.59375,0.5 -0.234375,0.3125 -0.359375,0.95312 -0.109375,0.64063 -0.109375,2.04688 z m 33.937495,1.70313 -1.53125,0.40625 -1.42187,-1.53125 q -1.26563,0.78125 -2.65625,1.15625 -1.39063,0.375 -3.1875,0.375 -4.9375,0 -7.4375,-3.39063 -2.5,-3.39062 -2.5,-10.0625 0,-4.17187 1.359375,-7.3125 1.375,-3.14062 3.921875,-4.82812 2.5625,-1.6875 6.03125,-1.6875 1.8125,0 3.48437,0.20312 1.6875,0.20313 3.73438,0.70313 v 5.375 h -1.9375 q -0.51563,-1.75 -1.25,-2.73438 -0.71875,-1 -1.73438,-1.40625 -1,-0.42187 -2.53125,-0.42187 -2.14062,0 -3.75,1.375 -1.593745,1.35937 -2.48437,4.03125 -0.875,2.65625 -0.875,6.42187 0,3.82813 0.75,6.54688 0.75,2.71875 2.23437,4.09375 1.48438,1.375 3.65625,1.375 2.29688,0 3.40625,-1 1.125,-1.01563 1.125,-3.10938 v -1.17187 q 0,-1.75 -0.1875,-2.53125 -0.1875,-0.78125 -0.65625,-1.20313 -0.46875,-0.4375 -1.54687,-0.71875 v -0.95312 h 7.89062 v 0.95312 q -0.70312,0.23438 -1.0625,0.54688 -0.34375,0.29687 -0.53125,0.75 -0.1875,0.45312 -0.25,1.10937 -0.0625,0.64063 -0.0625,1.85938 z m 16.15235,0.40625 q -2.34375,0 -4.28125,-0.76563 -1.92188,-0.78125 -3.29688,-2.40625 -1.375,-1.64062 -2.125,-4.17187 -0.75,-2.54688 -0.75,-6.07813 0,-4.35937 1.32813,-7.48437 1.32812,-3.125 3.79687,-4.75 2.46875,-1.625 5.73438,-1.625 3.46875,0 5.84375,1.53125 2.375,1.53125 3.57812,4.51562 1.20313,2.96875 1.20313,7.25 0,4.5625 -1.375,7.71875 -1.35938,3.14063 -3.85938,4.70313 -2.48437,1.5625 -5.79687,1.5625 z m -6.4375,-13.96875 q 0,6 1.75,9.125 1.75,3.125 5.10937,3.125 2.125,0 3.60938,-1.35938 1.48437,-1.35937 2.21875,-3.96875 0.75,-2.625 0.75,-6.125 0,-4.25 -0.875,-7.04687 -0.85938,-2.8125 -2.35938,-4.07813 -1.5,-1.26562 -3.5,-1.26562 -1.75,0 -3.01562,0.82812 -1.26563,0.8125 -2.09375,2.32813 -0.82813,1.5 -1.21875,3.65625 -0.375,2.14062 -0.375,4.78125 z m 28.11719,2.07812 v 6.64063 q 0,1.40625 0.0937,2.04687 0.10937,0.625 0.32812,0.95313 0.21875,0.3125 0.57813,0.51562 0.375,0.20313 1.28125,0.46875 V 284.4 h -8.25 v -0.95313 q 1.21875,-0.3125 1.625,-0.6875 0.40625,-0.39062 0.53125,-1.09375 0.14062,-0.70312 0.14062,-2.15625 v -16.89062 q 0,-1.34375 -0.10937,-1.95313 -0.0937,-0.625 -0.32813,-0.96875 -0.21875,-0.34375 -0.59375,-0.54687 -0.35937,-0.20313 -1.26562,-0.45313 v -0.95312 h 9.67187 q 4.57813,0 6.84375,1.65625 2.26563,1.65625 2.26563,5.15625 0,2.67187 -1.48438,4.54687 -1.46875,1.875 -4.42187,2.9375 v 0.15625 q 1.1875,0.48438 2.03125,1.39063 0.85937,0.90625 1.89062,2.82812 l 1.76563,3.20313 q 0.76562,1.40625 1.3125,2.15625 0.54687,0.73437 1.10937,1.125 0.5625,0.39062 1.5,0.54687 V 284.4 h -5.40625 q -0.75,-1.03125 -1.42187,-2.21875 -0.65625,-1.20313 -1.29688,-2.4375 l -1.71875,-3.25 q -0.78125,-1.48438 -1.28125,-2.1875 -0.5,-0.70313 -0.92187,-0.98438 -0.40625,-0.29687 -0.89063,-0.39062 -0.48437,-0.10938 -1.4375,-0.10938 z m 0,-13.28125 v 11.59375 h 2.20312 q 1.70313,0 2.75,-0.23437 1.0625,-0.25 1.95313,-0.9375 0.90625,-0.6875 1.4375,-1.90625 0.53125,-1.21875 0.53125,-3 0,-1.84375 -0.64063,-3.07813 -0.625,-1.23437 -1.92187,-1.875 -1.28125,-0.64062 -3.46875,-0.64062 -1.75,0 -2.84375,0.0781 z m 24.84375,19.96875 q 0,1.3125 0.0781,1.92188 0.0937,0.60937 0.29688,0.96875 0.20312,0.34375 0.59375,0.57812 0.40625,0.23438 1.3125,0.46875 V 284.4 h -8.25 v -0.95313 q 1.21875,-0.3125 1.625,-0.6875 0.40625,-0.39062 0.53125,-1.09375 0.14062,-0.70312 0.14062,-2.15625 v -16.89062 q 0,-1.34375 -0.10937,-1.95313 -0.0937,-0.625 -0.32813,-0.96875 -0.21875,-0.34375 -0.59375,-0.54687 -0.35937,-0.20313 -1.26562,-0.45313 v -0.95312 h 8.25 v 0.95312 q -0.85938,0.21875 -1.25,0.4375 -0.375,0.20313 -0.60938,0.53125 -0.21875,0.3125 -0.32812,0.96875 -0.0937,0.64063 -0.0937,1.98438 z m 5.9375,-21.76562 h 21.125 v 6.79687 h -1.90625 q -0.4375,-1.6875 -0.85938,-2.65625 -0.42187,-0.98437 -0.89062,-1.48437 -0.46875,-0.51563 -1,-0.71875 -0.53125,-0.21875 -1.60938,-0.21875 h -2.48437 v 20 q 0,1.14062 0.125,1.82812 0.125,0.6875 0.39062,1.09375 0.26563,0.39063 0.71875,0.625 0.45313,0.21875 1.40625,0.4375 V 284.4 h -8.92187 v -0.95313 q 0.57812,-0.14062 1.03125,-0.29687 0.45312,-0.15625 0.73437,-0.375 0.28125,-0.23438 0.46875,-0.57813 0.1875,-0.35937 0.28125,-0.95312 0.10938,-0.60938 0.10938,-1.78125 v -20 h -2.45313 q -0.92187,0 -1.51562,0.17187 -0.59375,0.17188 -1.10938,0.73438 -0.5,0.54687 -0.92187,1.57812 -0.42188,1.03125 -0.79688,2.59375 h -1.92187 z m 45.22656,21.76562 q 0,1.14063 0.0625,1.70313 0.0625,0.5625 0.1875,0.90625 0.14062,0.34375 0.32812,0.5625 0.20313,0.21875 0.5625,0.39062 0.35938,0.17188 1.125,0.375 V 284.4 h -8.1875 v -0.95313 q 1.07813,-0.28125 1.5,-0.60937 0.4375,-0.32813 0.59375,-1.01563 0.17188,-0.6875 0.17188,-2.3125 v -8.17187 h -10.85938 v 8.17187 q 0,1.3125 0.0937,1.92188 0.0937,0.60937 0.29688,0.96875 0.20312,0.34375 0.59375,0.57812 0.40625,0.23438 1.3125,0.46875 V 284.4 h -8.23438 v -0.95313 q 1.21875,-0.3125 1.625,-0.6875 0.40625,-0.39062 0.53125,-1.09375 0.14063,-0.70312 0.14063,-2.15625 v -16.89062 q 0,-1.34375 -0.10938,-1.95313 -0.0937,-0.625 -0.32812,-0.96875 -0.21875,-0.34375 -0.59375,-0.54687 -0.35938,-0.20313 -1.26563,-0.45313 v -0.95312 h 8.23438 v 0.95312 q -0.85938,0.21875 -1.25,0.4375 -0.375,0.20313 -0.60938,0.53125 -0.21875,0.3125 -0.32812,0.96875 -0.10938,0.64063 -0.10938,1.98438 v 6.92187 h 10.85938 v -6.92187 q 0,-1.70313 -0.17188,-2.32813 -0.15625,-0.625 -0.54687,-0.95312 -0.39063,-0.32813 -1.54688,-0.64063 v -0.95312 h 8.1875 v 0.95312 q -1.09375,0.26563 -1.53125,0.60938 -0.42187,0.34375 -0.57812,1.03125 -0.15625,0.6875 -0.15625,2.28125 z m 34.89844,-20.8125 q -0.85938,0.21875 -1.23438,0.4375 -0.375,0.20313 -0.60937,0.53125 -0.21875,0.3125 -0.32813,0.96875 -0.10937,0.64063 -0.10937,1.98438 v 16.89062 q 0,1.3125 0.0781,1.92188 0.0937,0.60937 0.29688,0.96875 0.21875,0.34375 0.60937,0.57812 0.40625,0.23438 1.29688,0.46875 V 284.4 h -8.14063 v -0.95313 q 1.10938,-0.28125 1.53125,-0.625 0.4375,-0.35937 0.59375,-1.03125 0.15625,-0.6875 0.15625,-2.28125 v -7.46875 q 0,-2.95312 0.0937,-5.96875 0.0937,-3.01562 0.20313,-4.14062 h -0.32813 l -7.73437,19.35937 h -2.25 l -7.1875,-19.67187 h -0.32813 q 0.0937,1.20312 0.17188,4.32812 0.0937,3.125 0.0937,6.42188 v 7.14062 q 0,1.3125 0.0937,1.92188 0.0937,0.60937 0.29687,0.96875 0.20313,0.34375 0.59375,0.57812 0.40625,0.23438 1.3125,0.46875 V 284.4 h -7.14062 v -0.95313 q 1.21875,-0.3125 1.625,-0.6875 0.40625,-0.39062 0.53125,-1.09375 0.14062,-0.70312 0.14062,-2.15625 v -16.89062 q 0,-1.34375 -0.10937,-1.95313 -0.0937,-0.625 -0.32813,-0.96875 -0.21875,-0.34375 -0.59375,-0.54687 -0.35937,-0.20313 -1.26562,-0.45313 v -0.95312 h 6.98437 l 6.84375,19 7.54688,-19 h 6.59375 z m 10.69531,20.8125 q 0,1.3125 0.0781,1.92188 0.0937,0.60937 0.29688,0.96875 0.20312,0.34375 0.59375,0.57812 0.40625,0.23438 1.3125,0.46875 V 284.4 h -8.25 v -0.95313 q 1.21875,-0.3125 1.625,-0.6875 0.40625,-0.39062 0.53125,-1.09375 0.14062,-0.70312 0.14062,-2.15625 v -16.89062 q 0,-1.34375 -0.10937,-1.95313 -0.0937,-0.625 -0.32813,-0.96875 -0.21875,-0.34375 -0.59375,-0.54687 -0.35937,-0.20313 -1.26562,-0.45313 v -0.95312 h 8.25 v 0.95312 q -0.85938,0.21875 -1.25,0.4375 -0.375,0.20313 -0.60938,0.53125 -0.21875,0.3125 -0.32812,0.96875 -0.0937,0.64063 -0.0937,1.98438 z m 25,-21.20312 v 5.40625 h -1.9375 q -0.46875,-1.70313 -1.20313,-2.70313 -0.71875,-1 -1.67187,-1.42187 -0.95313,-0.4375 -2.29688,-0.4375 -2.01562,0 -3.59375,1.34375 -1.5625,1.32812 -2.46875,4.01562 -0.89062,2.6875 -0.89062,6.48438 0,3.82812 0.73437,6.54687 0.75,2.70313 2.1875,4.07813 1.45313,1.375 3.5625,1.375 1.59375,0 2.60938,-0.45313 1.01562,-0.46875 1.70312,-1.45312 0.70313,-1 1.32813,-2.9375 h 1.9375 v 5.57812 q -1.84375,0.5 -3.76563,0.73438 -1.92187,0.25 -4.23437,0.25 -4.95313,0 -7.5,-3.35938 -2.53125,-3.35937 -2.53125,-10.01562 0,-4.1875 1.3125,-7.32813 1.32812,-3.14062 3.875,-4.85937 2.5625,-1.71875 6.125,-1.71875 1.76562,0 3.26562,0.1875 1.51563,0.17187 3.45313,0.6875 z m 146.52344,26 -1.53125,0.40625 -1.42188,-1.53125 q -1.26562,0.78125 -2.65625,1.15625 -1.39062,0.375 -3.1875,0.375 -4.9375,0 -7.4375,-3.39063 -2.5,-3.39062 -2.5,-10.0625 0,-4.17187 1.35938,-7.3125 1.375,-3.14062 3.92187,-4.82812 2.5625,-1.6875 6.03125,-1.6875 1.8125,0 3.48438,0.20312 1.6875,0.20313 3.73437,0.70313 v 5.375 h -1.9375 q -0.51562,-1.75 -1.25,-2.73438 -0.71875,-1 -1.73437,-1.40625 -1,-0.42187 -2.53125,-0.42187 -2.14063,0 -3.75,1.375 -1.59375,1.35937 -2.48438,4.03125 -0.875,2.65625 -0.875,6.42187 0,3.82813 0.75,6.54688 0.75,2.71875 2.23438,4.09375 1.48437,1.375 3.65625,1.375 2.29687,0 3.40625,-1 1.125,-1.01563 1.125,-3.10938 v -1.17187 q 0,-1.75 -0.1875,-2.53125 -0.1875,-0.78125 -0.65625,-1.20313 -0.46875,-0.4375 -1.54688,-0.71875 v -0.95312 h 7.89063 v 0.95312 q -0.70313,0.23438 -1.0625,0.54688 -0.34375,0.29687 -0.53125,0.75 -0.1875,0.45312 -0.25,1.10937 -0.0625,0.64063 -0.0625,1.85938 z m 16.15234,0.40625 q -2.34375,0 -4.28125,-0.76563 -1.92187,-0.78125 -3.29687,-2.40625 -1.375,-1.64062 -2.125,-4.17187 -0.75,-2.54688 -0.75,-6.07813 0,-4.35937 1.32812,-7.48437 1.32813,-3.125 3.79688,-4.75 2.46875,-1.625 5.73437,-1.625 3.46875,0 5.84375,1.53125 2.375,1.53125 3.57813,4.51562 1.20312,2.96875 1.20312,7.25 0,4.5625 -1.375,7.71875 -1.35937,3.14063 -3.85937,4.70313 -2.48438,1.5625 -5.79688,1.5625 z m -6.4375,-13.96875 q 0,6 1.75,9.125 1.75,3.125 5.10938,3.125 2.125,0 3.60937,-1.35938 1.48438,-1.35937 2.21875,-3.96875 0.75,-2.625 0.75,-6.125 0,-4.25 -0.875,-7.04687 -0.85937,-2.8125 -2.35937,-4.07813 -1.5,-1.26562 -3.5,-1.26562 -1.75,0 -3.01563,0.82812 -1.26562,0.8125 -2.09375,2.32813 -0.82812,1.5 -1.21875,3.65625 -0.375,2.14062 -0.375,4.78125 z m 28.41016,-13 v 0.95312 q -0.90625,0.15625 -1.375,0.39063 -0.46875,0.23437 -0.70313,0.67187 -0.23437,0.42188 -0.23437,1.14063 0,0.67187 0.15625,1.4375 0.15625,0.76562 0.45312,1.73437 l 4.5625,15.9375 5.60938,-16.0625 q 0.125,-0.375 0.23437,-0.78125 0.125,-0.40625 0.20313,-0.79687 0.0937,-0.39063 0.125,-0.6875 0.0312,-0.29688 0.0312,-0.54688 0,-1.17187 -0.54688,-1.70312 -0.53125,-0.54688 -1.82812,-0.73438 v -0.95312 h 8.20312 v 0.95312 q -0.79687,0.1875 -1.28125,0.5625 -0.48437,0.375 -0.96875,1.20313 -0.48437,0.8125 -1.15625,2.60937 l -8.10937,21.64063 h -2.5625 L 475.3457,262.93125 Q 474.81445,261.15 474.42383,260.4 q -0.39063,-0.75 -0.85938,-1.125 -0.46875,-0.39063 -1.28125,-0.57813 v -0.95312 z m 35.5,0 v 5.89062 h -1.90625 q -0.29688,-0.95312 -0.60938,-1.67187 -0.3125,-0.73438 -0.65625,-1.21875 -0.32812,-0.48438 -0.73437,-0.78125 -0.39063,-0.29688 -0.9375,-0.39063 -0.54688,-0.10937 -1.3125,-0.10937 h -6.17188 v 10.23437 h 4.1875 q 0.85938,0 1.34375,-0.25 0.48438,-0.25 0.8125,-0.82812 0.32813,-0.59375 0.60938,-1.84375 h 1.84375 v 7.5 h -1.84375 q -0.26563,-1.17188 -0.60938,-1.76563 -0.32812,-0.59375 -0.78125,-0.84375 -0.45312,-0.25 -1.375,-0.25 h -4.1875 v 11.26563 h 6.07813 q 0.95312,0 1.54687,-0.15625 0.60938,-0.17188 1.03125,-0.57813 0.4375,-0.40625 0.76563,-1.04687 0.32812,-0.64063 0.54687,-1.32813 0.23438,-0.70312 0.625,-2.03125 h 1.9375 l -0.375,6.85938 H 498.3457 v -0.95313 q 1.21875,-0.3125 1.625,-0.6875 0.40625,-0.39062 0.53125,-1.09375 0.14063,-0.70312 0.14063,-2.15625 v -16.89062 q 0,-1.34375 -0.10938,-1.95313 -0.0937,-0.625 -0.32812,-0.96875 -0.21875,-0.34375 -0.59375,-0.54687 -0.35938,-0.20313 -1.26563,-0.45313 v -0.95312 z m 10.71094,15.07812 v 6.64063 q 0,1.40625 0.0937,2.04687 0.10937,0.625 0.32812,0.95313 0.21875,0.3125 0.57813,0.51562 0.375,0.20313 1.28125,0.46875 V 284.4 h -8.25 v -0.95313 q 1.21875,-0.3125 1.625,-0.6875 0.40625,-0.39062 0.53125,-1.09375 0.14062,-0.70312 0.14062,-2.15625 v -16.89062 q 0,-1.34375 -0.10937,-1.95313 -0.0937,-0.625 -0.32813,-0.96875 -0.21875,-0.34375 -0.59375,-0.54687 -0.35937,-0.20313 -1.26562,-0.45313 v -0.95312 h 9.67187 q 4.57813,0 6.84375,1.65625 2.26563,1.65625 2.26563,5.15625 0,2.67187 -1.48438,4.54687 -1.46875,1.875 -4.42187,2.9375 v 0.15625 q 1.1875,0.48438 2.03125,1.39063 0.85937,0.90625 1.89062,2.82812 l 1.76563,3.20313 q 0.76562,1.40625 1.3125,2.15625 0.54687,0.73437 1.10937,1.125 0.5625,0.39062 1.5,0.54687 V 284.4 h -5.40625 q -0.75,-1.03125 -1.42187,-2.21875 -0.65625,-1.20313 -1.29688,-2.4375 l -1.71875,-3.25 q -0.78125,-1.48438 -1.28125,-2.1875 -0.5,-0.70313 -0.92187,-0.98438 -0.40625,-0.29687 -0.89063,-0.39062 -0.48437,-0.10938 -1.4375,-0.10938 z m 0,-13.28125 v 11.59375 h 2.20312 q 1.70313,0 2.75,-0.23437 1.0625,-0.25 1.95313,-0.9375 0.90625,-0.6875 1.4375,-1.90625 0.53125,-1.21875 0.53125,-3 0,-1.84375 -0.64063,-3.07813 -0.625,-1.23437 -1.92187,-1.875 -1.28125,-0.64062 -3.46875,-0.64062 -1.75,0 -2.84375,0.0781 z m 34.5625,14.29688 q 0.70312,1.17187 1.17187,2.04687 0.48438,0.875 1,1.96875 h 0.25 q -0.0937,-1.1875 -0.17187,-4.73437 -0.0781,-3.54688 -0.0781,-6.39063 v -4.10937 q 0,-1.34375 -0.0781,-1.96875 -0.0781,-0.625 -0.28125,-0.95313 -0.20313,-0.34375 -0.57813,-0.54687 -0.35937,-0.20313 -1.25,-0.45313 v -0.95312 h 7.03125 v 0.95312 q -0.875,0.23438 -1.25,0.4375 -0.35937,0.1875 -0.57812,0.5 -0.21875,0.3125 -0.34375,0.9375 -0.10938,0.625 -0.10938,2.04688 V 284.525 h -2.45312 l -10.875,-18.25 q -1.01563,-1.70313 -1.45313,-2.48438 -0.42187,-0.78125 -0.79687,-1.54687 h -0.32813 q 0.14063,1.51562 0.1875,5.45312 0.0625,3.92188 0.0625,7.82813 v 3.98437 q 0,1.3125 0.0937,1.92188 0.0937,0.60937 0.29688,0.96875 0.20312,0.34375 0.59375,0.57812 0.40625,0.23438 1.3125,0.46875 V 284.4 h -7.14063 v -0.95313 q 1.21875,-0.3125 1.625,-0.6875 0.40625,-0.39062 0.53125,-1.09375 0.14063,-0.70312 0.14063,-2.15625 v -16.89062 q 0,-1.34375 -0.10938,-1.95313 -0.0937,-0.625 -0.32812,-0.96875 -0.21875,-0.34375 -0.59375,-0.54687 -0.35938,-0.20313 -1.26563,-0.45313 v -0.95312 h 6.125 z M 585.84961,284.4 v -0.95313 q 0.98438,-0.20312 1.45313,-0.4375 0.48437,-0.23437 0.71875,-0.65625 0.23437,-0.42187 0.23437,-1.125 0,-0.65625 -0.15625,-1.42187 -0.15625,-0.78125 -0.45312,-1.73438 l -0.71875,-2.51562 h -9.10938 l -0.65625,1.90625 q -0.51562,1.45312 -0.67187,2.20312 -0.15625,0.73438 -0.15625,1.32813 0,1.17187 0.59375,1.71875 0.60937,0.54687 1.82812,0.73437 V 284.4 h -8.32812 v -0.95313 q 1.09375,-0.1875 1.89062,-1.28125 0.8125,-1.09375 1.57813,-3.125 l 8.14062,-21.60937 h 3.09375 l 6.64063,21.76562 q 0.46875,1.53125 0.82812,2.32813 0.35938,0.79687 0.85938,1.25 0.51562,0.45312 1.39062,0.67187 V 284.4 Z m -7.5,-10.54688 h 8.17188 l -3.71875,-12.59375 z m 34.92188,-0.0156 q 0.70312,1.17187 1.17187,2.04687 0.48438,0.875 1,1.96875 h 0.25 q -0.0937,-1.1875 -0.17187,-4.73437 -0.0781,-3.54688 -0.0781,-6.39063 v -4.10937 q 0,-1.34375 -0.0781,-1.96875 -0.0781,-0.625 -0.28125,-0.95313 -0.20313,-0.34375 -0.57813,-0.54687 -0.35937,-0.20313 -1.25,-0.45313 v -0.95312 h 7.03125 v 0.95312 q -0.875,0.23438 -1.25,0.4375 -0.35937,0.1875 -0.57812,0.5 -0.21875,0.3125 -0.34375,0.9375 -0.10938,0.625 -0.10938,2.04688 V 284.525 h -2.45312 l -10.875,-18.25 q -1.01563,-1.70313 -1.45313,-2.48438 -0.42187,-0.78125 -0.79687,-1.54687 h -0.32813 q 0.14063,1.51562 0.1875,5.45312 0.0625,3.92188 0.0625,7.82813 v 3.98437 q 0,1.3125 0.0937,1.92188 0.0937,0.60937 0.29688,0.96875 0.20312,0.34375 0.59375,0.57812 0.40625,0.23438 1.3125,0.46875 V 284.4 h -7.14063 v -0.95313 q 1.21875,-0.3125 1.625,-0.6875 0.40625,-0.39062 0.53125,-1.09375 0.14063,-0.70312 0.14063,-2.15625 v -16.89062 q 0,-1.34375 -0.10938,-1.95313 -0.0937,-0.625 -0.32812,-0.96875 -0.21875,-0.34375 -0.59375,-0.54687 -0.35938,-0.20313 -1.26563,-0.45313 v -0.95312 h 6.125 z m 29.53906,-15.53125 v 5.40625 h -1.9375 q -0.46875,-1.70313 -1.20313,-2.70313 -0.71875,-1 -1.67187,-1.42187 -0.95313,-0.4375 -2.29688,-0.4375 -2.01562,0 -3.59375,1.34375 -1.5625,1.32812 -2.46875,4.01562 -0.89062,2.6875 -0.89062,6.48438 0,3.82812 0.73437,6.54687 0.75,2.70313 2.1875,4.07813 1.45313,1.375 3.5625,1.375 1.59375,0 2.60938,-0.45313 1.01562,-0.46875 1.70312,-1.45312 0.70313,-1 1.32813,-2.9375 h 1.9375 v 5.57812 q -1.84375,0.5 -3.76563,0.73438 -1.92187,0.25 -4.23437,0.25 -4.95313,0 -7.5,-3.35938 -2.53125,-3.35937 -2.53125,-10.01562 0,-4.1875 1.3125,-7.32813 1.32812,-3.14062 3.875,-4.85937 2.5625,-1.71875 6.125,-1.71875 1.76562,0 3.26562,0.1875 1.51563,0.17187 3.45313,0.6875 z m 22.76562,-0.5625 v 5.89062 h -1.90625 q -0.29687,-0.95312 -0.60937,-1.67187 -0.3125,-0.73438 -0.65625,-1.21875 -0.32813,-0.48438 -0.73438,-0.78125 -0.39062,-0.29688 -0.9375,-0.39063 -0.54687,-0.10937 -1.3125,-0.10937 h -6.17187 v 10.23437 h 4.1875 q 0.85937,0 1.34375,-0.25 0.48437,-0.25 0.8125,-0.82812 0.32812,-0.59375 0.60937,-1.84375 h 1.84375 v 7.5 h -1.84375 q -0.26562,-1.17188 -0.60937,-1.76563 -0.32813,-0.59375 -0.78125,-0.84375 -0.45313,-0.25 -1.375,-0.25 h -4.1875 v 11.26563 h 6.07812 q 0.95313,0 1.54688,-0.15625 0.60937,-0.17188 1.03125,-0.57813 0.4375,-0.40625 0.76562,-1.04687 0.32813,-0.64063 0.54688,-1.32813 0.23437,-0.70312 0.625,-2.03125 h 1.9375 l -0.375,6.85938 h -18.09375 v -0.95313 q 1.21875,-0.3125 1.625,-0.6875 0.40625,-0.39062 0.53125,-1.09375 0.14062,-0.70312 0.14062,-2.15625 v -16.89062 q 0,-1.34375 -0.10937,-1.95313 -0.0937,-0.625 -0.32813,-0.96875 -0.21875,-0.34375 -0.59375,-0.54687 -0.35937,-0.20313 -1.26562,-0.45313 v -0.95312 z m 31.36328,0 v 5.89062 h -1.90625 q -0.4375,-1.32812 -0.84375,-2.14062 -0.39062,-0.82813 -0.82812,-1.25 -0.4375,-0.4375 -1.03125,-0.60938 -0.57813,-0.17187 -1.53125,-0.17187 h -5.73438 v 10.625 h 4.03125 q 0.85938,0 1.34375,-0.28125 0.48438,-0.29688 0.8125,-0.95313 0.32813,-0.67187 0.60938,-2.04687 h 1.84375 v 8.23437 h -1.84375 q -0.28125,-1.32812 -0.625,-2 -0.32813,-0.67187 -0.79688,-0.95312 -0.45312,-0.28125 -1.34375,-0.28125 h -4.03125 v 7.65625 q 0,1.17187 0.14063,1.875 0.14062,0.70312 0.45312,1.10937 0.3125,0.40625 0.82813,0.60938 0.53125,0.20312 1.3125,0.39062 V 284.4 h -8.67188 v -0.95313 q 1.21875,-0.3125 1.625,-0.6875 0.40625,-0.39062 0.53125,-1.09375 0.14063,-0.70312 0.14063,-2.15625 v -16.89062 q 0,-1.34375 -0.10938,-1.95313 -0.0937,-0.625 -0.32812,-0.96875 -0.21875,-0.34375 -0.59375,-0.54687 -0.35938,-0.20313 -1.26563,-0.45313 v -0.95312 z m 13.78125,26.96875 q -2.34375,0 -4.28125,-0.76563 -1.92187,-0.78125 -3.29687,-2.40625 -1.375,-1.64062 -2.125,-4.17187 -0.75,-2.54688 -0.75,-6.07813 0,-4.35937 1.32812,-7.48437 1.32813,-3.125 3.79688,-4.75 2.46875,-1.625 5.73437,-1.625 3.46875,0 5.84375,1.53125 2.375,1.53125 3.57813,4.51562 1.20312,2.96875 1.20312,7.25 0,4.5625 -1.375,7.71875 -1.35937,3.14063 -3.85937,4.70313 -2.48438,1.5625 -5.79688,1.5625 z m -6.4375,-13.96875 q 0,6 1.75,9.125 1.75,3.125 5.10938,3.125 2.125,0 3.60937,-1.35938 1.48438,-1.35937 2.21875,-3.96875 0.75,-2.625 0.75,-6.125 0,-4.25 -0.875,-7.04687 -0.85937,-2.8125 -2.35937,-4.07813 -1.5,-1.26562 -3.5,-1.26562 -1.75,0 -3.01563,0.82812 -1.26562,0.8125 -2.09375,2.32813 -0.82812,1.5 -1.21875,3.65625 -0.375,2.14062 -0.375,4.78125 z m 41.75782,4.4375 q 0,2.125 -0.39063,3.67187 -0.35937,1.46875 -1.10937,2.59375 -0.6875,1.01563 -1.70313,1.73438 -1.01562,0.70312 -2.46875,1.125 -1.4375,0.40625 -3.39062,0.40625 -2.35938,0 -4.04688,-0.53125 -1.6875,-0.53125 -2.79687,-1.71875 -1.09375,-1.20313 -1.59375,-2.82813 -0.48438,-1.64062 -0.48438,-4.15625 v -12.85937 q 0,-1.51563 -0.0937,-2.04688 -0.0937,-0.54687 -0.28125,-0.85937 -0.1875,-0.3125 -0.54687,-0.53125 -0.34375,-0.23438 -1.29688,-0.48438 v -0.95312 h 8.20313 v 0.95312 q -1.09375,0.26563 -1.53125,0.60938 -0.42188,0.34375 -0.57813,1.03125 -0.15625,0.6875 -0.15625,2.28125 v 13.82812 q 0,1.89063 0.39063,3.1875 0.40625,1.28125 1.125,2 0.71875,0.71875 1.71875,1.04688 1,0.3125 2.48437,0.3125 1.35938,0 2.39063,-0.46875 1.04687,-0.48438 1.73437,-1.45313 0.70313,-0.98437 0.95313,-2.40625 0.25,-1.4375 0.25,-3.84375 v -12.20312 q 0,-1.70313 -0.17188,-2.32813 -0.15625,-0.625 -0.54687,-0.95312 -0.375,-0.32813 -1.5625,-0.64063 v -0.95312 h 7.79687 v 0.95312 q -1.14062,0.29688 -1.5625,0.65625 -0.42187,0.34375 -0.57812,1.01563 -0.15625,0.65625 -0.15625,2.25 z m 21.99609,-1.34375 q 0.70312,1.17187 1.17187,2.04687 0.48438,0.875 1,1.96875 h 0.25 q -0.0937,-1.1875 -0.17187,-4.73437 -0.0781,-3.54688 -0.0781,-6.39063 v -4.10937 q 0,-1.34375 -0.0781,-1.96875 -0.0781,-0.625 -0.28125,-0.95313 -0.20313,-0.34375 -0.57813,-0.54687 -0.35937,-0.20313 -1.25,-0.45313 v -0.95312 h 7.03125 v 0.95312 q -0.875,0.23438 -1.25,0.4375 -0.35937,0.1875 -0.57812,0.5 -0.21875,0.3125 -0.34375,0.9375 -0.10938,0.625 -0.10938,2.04688 V 284.525 h -2.45312 l -10.875,-18.25 q -1.01563,-1.70313 -1.45313,-2.48438 -0.42187,-0.78125 -0.79687,-1.54687 h -0.32813 q 0.14063,1.51562 0.1875,5.45312 0.0625,3.92188 0.0625,7.82813 v 3.98437 q 0,1.3125 0.0937,1.92188 0.0937,0.60937 0.29688,0.96875 0.20312,0.34375 0.59375,0.57812 0.40625,0.23438 1.3125,0.46875 V 284.4 h -7.14063 v -0.95313 q 1.21875,-0.3125 1.625,-0.6875 0.40625,-0.39062 0.53125,-1.09375 0.14063,-0.70312 0.14063,-2.15625 v -16.89062 q 0,-1.34375 -0.10938,-1.95313 -0.0937,-0.625 -0.32812,-0.96875 -0.21875,-0.34375 -0.59375,-0.54687 -0.35938,-0.20313 -1.26563,-0.45313 v -0.95312 h 6.125 z M 779.56055,284.4 v -0.95313 q 0.90625,-0.23437 1.29687,-0.45312 0.39063,-0.21875 0.59375,-0.54688 0.21875,-0.32812 0.3125,-0.95312 0.10938,-0.625 0.10938,-1.98438 v -16.89062 q 0,-1.35938 -0.10938,-1.96875 -0.0937,-0.625 -0.32812,-0.95313 -0.21875,-0.34375 -0.59375,-0.54687 -0.35938,-0.20313 -1.28125,-0.45313 v -0.95312 h 8.5625 q 3.6875,0 6.03125,0.8125 2.35937,0.79687 3.98437,2.39062 1.625,1.57813 2.42188,3.9375 0.79687,2.34375 0.79687,5.60938 0,3.29687 -0.75,5.8125 -0.75,2.5 -2.20312,4.20312 -1.25,1.48438 -3.0625,2.4375 -1.5,0.78125 -3.48438,1.125 -1.96875,0.32813 -5.21875,0.32813 z m 5.95312,-1.8125 q 0.78125,0.0781 2.3125,0.0781 1.64063,0 2.92188,-0.26562 1.29687,-0.28125 2.34375,-0.85938 1.0625,-0.59375 1.89062,-1.64062 0.84375,-1.04688 1.375,-2.40625 0.53125,-1.35938 0.76563,-3.01563 0.25,-1.65625 0.25,-3.64062 0,-3.95313 -1.14063,-6.5 -1.14062,-2.5625 -3.21875,-3.73438 -2.07812,-1.17187 -4.96875,-1.17187 -1.32812,0 -2.53125,0.0781 z m 32.54297,1.8125 v -0.95313 q 0.98438,-0.20312 1.45313,-0.4375 0.48437,-0.23437 0.71875,-0.65625 0.23437,-0.42187 0.23437,-1.125 0,-0.65625 -0.15625,-1.42187 -0.15625,-0.78125 -0.45312,-1.73438 l -0.71875,-2.51562 h -9.10938 l -0.65625,1.90625 q -0.51562,1.45312 -0.67187,2.20312 -0.15625,0.73438 -0.15625,1.32813 0,1.17187 0.59375,1.71875 0.60937,0.54687 1.82812,0.73437 V 284.4 h -8.32812 v -0.95313 q 1.09375,-0.1875 1.89062,-1.28125 0.8125,-1.09375 1.57813,-3.125 l 8.14062,-21.60937 h 3.09375 l 6.64063,21.76562 q 0.46875,1.53125 0.82812,2.32813 0.35938,0.79687 0.85938,1.25 0.51562,0.45312 1.39062,0.67187 V 284.4 Z m -7.5,-10.54688 h 8.17188 l -3.71875,-12.59375 z m 15.82813,-16.10937 h 21.125 v 6.79687 h -1.90625 q -0.4375,-1.6875 -0.85938,-2.65625 -0.42187,-0.98437 -0.89062,-1.48437 -0.46875,-0.51563 -1,-0.71875 -0.53125,-0.21875 -1.60938,-0.21875 h -2.48437 v 20 q 0,1.14062 0.125,1.82812 0.125,0.6875 0.39062,1.09375 0.26563,0.39063 0.71875,0.625 0.45313,0.21875 1.40625,0.4375 V 284.4 h -8.92187 v -0.95313 q 0.57812,-0.14062 1.03125,-0.29687 0.45312,-0.15625 0.73437,-0.375 0.28125,-0.23438 0.46875,-0.57813 0.1875,-0.35937 0.28125,-0.95312 0.10938,-0.60938 0.10938,-1.78125 v -20 h -2.45313 q -0.92187,0 -1.51562,0.17187 -0.59375,0.17188 -1.10938,0.73438 -0.5,0.54687 -0.92187,1.57812 -0.42188,1.03125 -0.79688,2.59375 h -1.92187 z m 30.74219,21.76562 q 0,1.3125 0.0781,1.92188 0.0937,0.60937 0.29688,0.96875 0.20312,0.34375 0.59375,0.57812 0.40625,0.23438 1.3125,0.46875 V 284.4 h -8.25 v -0.95313 q 1.21875,-0.3125 1.625,-0.6875 0.40625,-0.39062 0.53125,-1.09375 0.14062,-0.70312 0.14062,-2.15625 v -16.89062 q 0,-1.34375 -0.10937,-1.95313 -0.0937,-0.625 -0.32813,-0.96875 -0.21875,-0.34375 -0.59375,-0.54687 -0.35937,-0.20313 -1.26562,-0.45313 v -0.95312 h 8.25 v 0.95312 q -0.85938,0.21875 -1.25,0.4375 -0.375,0.20313 -0.60938,0.53125 -0.21875,0.3125 -0.32812,0.96875 -0.0937,0.64063 -0.0937,1.98438 z m 17.42187,5.20313 q -2.34375,0 -4.28125,-0.76563 -1.92187,-0.78125 -3.29687,-2.40625 -1.375,-1.64062 -2.125,-4.17187 -0.75,-2.54688 -0.75,-6.07813 0,-4.35937 1.32812,-7.48437 1.32813,-3.125 3.79688,-4.75 2.46875,-1.625 5.73437,-1.625 3.46875,0 5.84375,1.53125 2.375,1.53125 3.57813,4.51562 1.20312,2.96875 1.20312,7.25 0,4.5625 -1.375,7.71875 -1.35937,3.14063 -3.85937,4.70313 -2.48438,1.5625 -5.79688,1.5625 z m -6.4375,-13.96875 q 0,6 1.75,9.125 1.75,3.125 5.10938,3.125 2.125,0 3.60937,-1.35938 1.48438,-1.35937 2.21875,-3.96875 0.75,-2.625 0.75,-6.125 0,-4.25 -0.875,-7.04687 -0.85937,-2.8125 -2.35937,-4.07813 -1.5,-1.26562 -3.5,-1.26562 -1.75,0 -3.01563,0.82812 -1.26562,0.8125 -2.09375,2.32813 -0.82812,1.5 -1.21875,3.65625 -0.375,2.14062 -0.375,4.78125 z m 37.83594,3.09375 q 0.70312,1.17187 1.17187,2.04687 0.48438,0.875 1,1.96875 h 0.25 q -0.0937,-1.1875 -0.17187,-4.73437 -0.0781,-3.54688 -0.0781,-6.39063 v -4.10937 q 0,-1.34375 -0.0781,-1.96875 -0.0781,-0.625 -0.28125,-0.95313 -0.20313,-0.34375 -0.57813,-0.54687 -0.35937,-0.20313 -1.25,-0.45313 v -0.95312 h 7.03125 v 0.95312 q -0.875,0.23438 -1.25,0.4375 -0.35937,0.1875 -0.57812,0.5 -0.21875,0.3125 -0.34375,0.9375 -0.10938,0.625 -0.10938,2.04688 V 284.525 h -2.45312 l -10.875,-18.25 q -1.01563,-1.70313 -1.45313,-2.48438 -0.42187,-0.78125 -0.79687,-1.54687 h -0.32813 q 0.14063,1.51562 0.1875,5.45312 0.0625,3.92188 0.0625,7.82813 v 3.98437 q 0,1.3125 0.0937,1.92188 0.0937,0.60937 0.29688,0.96875 0.20312,0.34375 0.59375,0.57812 0.40625,0.23438 1.3125,0.46875 V 284.4 h -7.14063 v -0.95313 q 1.21875,-0.3125 1.625,-0.6875 0.40625,-0.39062 0.53125,-1.09375 0.14063,-0.70312 0.14063,-2.15625 v -16.89062 q 0,-1.34375 -0.10938,-1.95313 -0.0937,-0.625 -0.32812,-0.96875 -0.21875,-0.34375 -0.59375,-0.54687 -0.35938,-0.20313 -1.26563,-0.45313 v -0.95312 h 6.125 z"
       fill-rule="nonzero"
       id="path9" />
    <path
       fill="#000000"
       d="m 325.54367,269.99948 v 0 c 0,-21.20425 17.18945,-38.39371 38.39371,-38.39371 v 0 c 10.18265,0 19.94824,4.04505 27.14844,11.24526 7.20022,7.20021 11.24527,16.9658 11.24527,27.14845 v 0 c 0,21.20425 -17.18946,38.39371 -38.39371,38.39371 v 0 c -21.20426,0 -38.39371,-17.18946 -38.39371,-38.39371 z"
       fill-rule="evenodd"
       id="path11" />
  </g>
</svg>
